<svg width="15" height="16" viewBox="0 0 15 16" fill="none" xmlns="http://www.w3.org/2000/svg">
<path fill-rule="evenodd" clip-rule="evenodd" d="M14.0001 5.14165C14.0001 7.12965 12.3885 8.74125 10.4005 8.74125C8.41247 8.74125 6.80088 7.12965 6.80088 5.14165C6.80088 3.15365 8.41247 1.54205 10.4005 1.54205C12.3885 1.54205 14.0001 3.15365 14.0001 5.14165ZM15.0001 5.14165C15.0001 7.68194 12.9408 9.74125 10.4005 9.74125C9.5035 9.74125 8.66649 9.48449 7.95893 9.04046C7.92715 9.10551 7.88423 9.16649 7.83017 9.22054L1.32918 15.7215C1.0668 15.9839 0.641408 15.9839 0.379033 15.7215C0.116657 15.4592 0.116657 15.0338 0.379032 14.7714L6.88003 8.2704C6.90648 8.24394 6.9346 8.22015 6.96403 8.19903C6.24049 7.38636 5.80088 6.31534 5.80088 5.14165C5.80088 2.60136 7.86019 0.542053 10.4005 0.542053C12.9408 0.542053 15.0001 2.60136 15.0001 5.14165Z" fill="#3E5459"/>
</svg>
